<svg width="1215" height="1060" viewBox="0 0 1215 1060" fill="none" xmlns="http://www.w3.org/2000/svg">
<g opacity="0.6" filter="url(#filter0_ii_4804_37249)">
<path fill-rule="evenodd" clip-rule="evenodd" d="M697.109 443.789C697.109 480.578 657.297 510.402 608.185 510.402C559.074 510.402 519.262 480.578 519.262 443.789C519.262 407 559.074 377.176 608.185 377.176C657.297 377.176 697.109 407 697.109 443.789ZM679.028 417.876C635.439 432.198 609.576 465.015 612.825 502.211C627.557 501.902 636.779 500.408 648.323 494.432C650.122 470.373 662.539 454.866 688.096 443.635C687.143 432.286 685.078 426.686 679.028 417.876ZM567.333 494.432C580.556 500.108 588.328 502.968 603.088 502.52C604.273 461.769 580.88 434.362 537.242 417.979C530.357 427.387 527.98 432.993 528.642 444.717C549.301 453.784 565.427 469.446 567.333 494.432ZM567.282 393.198C555.636 398.257 550.415 402.29 542.5 410.766C572.482 430.292 633.894 435.495 674.134 410.766C667.433 403.348 659.499 397.629 649.61 393.198C625.96 405.46 589.123 404.687 567.282 393.198Z" fill="url(#paint0_linear_4804_37249)"/>
<path fill-rule="evenodd" clip-rule="evenodd" d="M697.109 443.789C697.109 480.578 657.297 510.402 608.185 510.402C559.074 510.402 519.262 480.578 519.262 443.789C519.262 407 559.074 377.176 608.185 377.176C657.297 377.176 697.109 407 697.109 443.789ZM679.028 417.876C635.439 432.198 609.576 465.015 612.825 502.211C627.557 501.902 636.779 500.408 648.323 494.432C650.122 470.373 662.539 454.866 688.096 443.635C687.143 432.286 685.078 426.686 679.028 417.876ZM567.333 494.432C580.556 500.108 588.328 502.968 603.088 502.52C604.273 461.769 580.88 434.362 537.242 417.979C530.357 427.387 527.98 432.993 528.642 444.717C549.301 453.784 565.427 469.446 567.333 494.432ZM567.282 393.198C555.636 398.257 550.415 402.29 542.5 410.766C572.482 430.292 633.894 435.495 674.134 410.766C667.433 403.348 659.499 397.629 649.61 393.198C625.96 405.46 589.123 404.687 567.282 393.198Z" fill="url(#paint1_linear_4804_37249)" fill-opacity="0.5"/>
<path d="M1055.14 905.878L960.928 443.071H703.265C703.278 443.563 703.285 444.056 703.285 444.55C703.285 484.038 660.528 516.05 607.785 516.05C555.042 516.05 512.715 484.038 512.715 444.55C512.715 444.056 512.721 443.563 512.735 443.071H255.072L160.859 905.878H316.366L352.945 676.528H502.733C502.733 676.528 532.038 625.28 608 625.28C683.962 625.28 713.267 676.528 713.267 676.528H863.055L899.634 905.878H1055.14Z" fill="url(#paint2_linear_4804_37249)"/>
<path d="M1055.14 905.878L960.928 443.071H703.265C703.278 443.563 703.285 444.056 703.285 444.55C703.285 484.038 660.528 516.05 607.785 516.05C555.042 516.05 512.715 484.038 512.715 444.55C512.715 444.056 512.721 443.563 512.735 443.071H255.072L160.859 905.878H316.366L352.945 676.528H502.733C502.733 676.528 532.038 625.28 608 625.28C683.962 625.28 713.267 676.528 713.267 676.528H863.055L899.634 905.878H1055.14Z" fill="url(#paint3_linear_4804_37249)" fill-opacity="0.5"/>
<path d="M706.516 676.528C698.36 664.03 669.92 629.293 608 629.293C546.08 629.293 517.64 664.03 509.484 676.528H608H706.516Z" fill="url(#paint4_linear_4804_37249)"/>
<path d="M706.516 676.528C698.36 664.03 669.92 629.293 608 629.293C546.08 629.293 517.64 664.03 509.484 676.528H608H706.516Z" fill="url(#paint5_linear_4804_37249)" fill-opacity="0.5"/>
<path d="M892.518 905.878L858.609 680.94H608H357.391L323.482 905.878H461.709L467.049 806.957H608H748.951L754.291 905.878H892.518Z" fill="url(#paint6_linear_4804_37249)"/>
<path d="M892.518 905.878L858.609 680.94H608H357.391L323.482 905.878H461.709L467.049 806.957H608H748.951L754.291 905.878H892.518Z" fill="url(#paint7_linear_4804_37249)" fill-opacity="0.5"/>
<path d="M748.378 905.878L743.705 812.833H608H472.295L467.622 905.878H608H748.378Z" fill="url(#paint8_linear_4804_37249)"/>
<path d="M748.378 905.878L743.705 812.833H608H472.295L467.622 905.878H608H748.378Z" fill="url(#paint9_linear_4804_37249)" fill-opacity="0.5"/>
<path d="M706.591 191.205L703.921 147.909H608H512.079L509.409 191.205H608H706.591Z" fill="url(#paint10_linear_4804_37249)"/>
<path d="M706.591 191.205L703.921 147.909H608H512.079L509.409 191.205H608H706.591Z" fill="url(#paint11_linear_4804_37249)" fill-opacity="0.5"/>
<path d="M794.035 250.706L780.952 147.909H707.641L710.711 195.043H608H505.288L508.359 147.909H435.048L421.965 250.706H608H794.035Z" fill="url(#paint12_linear_4804_37249)"/>
<path d="M794.035 250.706L780.952 147.909H707.641L710.711 195.043H608H505.288L508.359 147.909H435.048L421.965 250.706H608H794.035Z" fill="url(#paint13_linear_4804_37249)" fill-opacity="0.5"/>
<path d="M669.643 254.544C666.068 264.034 652.468 287.844 608 287.844C563.532 287.844 549.932 264.034 546.357 254.544H608H669.643Z" fill="url(#paint14_linear_4804_37249)"/>
<path d="M669.643 254.544C666.068 264.034 652.468 287.844 608 287.844C563.532 287.844 549.932 264.034 546.357 254.544H608H669.643Z" fill="url(#paint15_linear_4804_37249)" fill-opacity="0.5"/>
<path d="M959.723 437.461L901.615 147.909H784.538L798.422 254.544H674.819C674.819 254.544 663.937 292.081 608 292.081C552.063 292.081 541.181 254.544 541.181 254.544H417.579L431.463 147.909H314.385L256.277 437.461H513.178C517.932 401.3 558.237 373.05 607.785 373.05C657.333 373.05 698.068 401.3 702.822 437.461H959.723Z" fill="url(#paint16_linear_4804_37249)"/>
<path d="M959.723 437.461L901.615 147.909H784.538L798.422 254.544H674.819C674.819 254.544 663.937 292.081 608 292.081C552.063 292.081 541.181 254.544 541.181 254.544H417.579L431.463 147.909H314.385L256.277 437.461H513.178C517.932 401.3 558.237 373.05 607.785 373.05C657.333 373.05 698.068 401.3 702.822 437.461H959.723Z" fill="url(#paint17_linear_4804_37249)" fill-opacity="0.5"/>
<g opacity="0.8" filter="url(#filter1_d_4804_37249)">
<path d="M612.825 502.211C609.576 465.015 635.439 432.198 679.028 417.876C685.078 426.686 687.143 432.286 688.096 443.635C662.539 454.866 650.122 470.373 648.323 494.432C636.779 500.408 627.557 501.902 612.825 502.211Z" fill="url(#paint18_linear_4804_37249)"/>
<path d="M612.825 502.211C609.576 465.015 635.439 432.198 679.028 417.876C685.078 426.686 687.143 432.286 688.096 443.635C662.539 454.866 650.122 470.373 648.323 494.432C636.779 500.408 627.557 501.902 612.825 502.211Z" fill="white"/>
<path d="M603.088 502.52C588.328 502.968 580.556 500.108 567.333 494.432C565.427 469.446 549.301 453.784 528.642 444.717C527.98 432.993 530.357 427.387 537.242 417.979C580.88 434.362 604.273 461.769 603.088 502.52Z" fill="url(#paint19_linear_4804_37249)"/>
<path d="M603.088 502.52C588.328 502.968 580.556 500.108 567.333 494.432C565.427 469.446 549.301 453.784 528.642 444.717C527.98 432.993 530.357 427.387 537.242 417.979C580.88 434.362 604.273 461.769 603.088 502.52Z" fill="white"/>
<path d="M542.5 410.766C550.415 402.29 555.636 398.257 567.282 393.198C589.123 404.687 625.96 405.46 649.61 393.198C659.499 397.629 667.433 403.348 674.134 410.766C633.894 435.495 572.482 430.292 542.5 410.766Z" fill="url(#paint20_linear_4804_37249)"/>
<path d="M542.5 410.766C550.415 402.29 555.636 398.257 567.282 393.198C589.123 404.687 625.96 405.46 649.61 393.198C659.499 397.629 667.433 403.348 674.134 410.766C633.894 435.495 572.482 430.292 542.5 410.766Z" fill="white"/>
<path fill-rule="evenodd" clip-rule="evenodd" d="M1072 917L904.242 144H608H311.758L144 917H608H1072ZM901.615 147.909L959.723 437.461H702.822C698.068 401.3 657.333 373.05 607.785 373.05C558.237 373.05 517.932 401.3 513.178 437.461H256.277L314.385 147.909H431.463L417.579 254.544H541.181C541.181 254.544 552.063 292.081 608 292.081C663.937 292.081 674.819 254.544 674.819 254.544H798.422L784.538 147.909H901.615ZM608 287.844C563.532 287.844 549.932 264.034 546.357 254.544H608H669.643C666.068 264.034 652.468 287.844 608 287.844ZM608 250.706H421.965L435.048 147.909H508.359L505.288 195.043H608H710.711L707.641 147.909H780.952L794.035 250.706H608ZM608 191.205H509.409L512.079 147.909H608H703.921L706.591 191.205H608ZM608.185 510.402C657.297 510.402 697.109 480.578 697.109 443.789C697.109 407 657.297 377.176 608.185 377.176C559.074 377.176 519.262 407 519.262 443.789C519.262 480.578 559.074 510.402 608.185 510.402ZM1055.14 905.878L960.928 443.071H703.265C703.278 443.563 703.285 444.056 703.285 444.55C703.285 484.038 660.528 516.05 607.785 516.05C555.042 516.05 512.715 484.038 512.715 444.55C512.715 444.056 512.721 443.563 512.735 443.071H255.072L160.859 905.878H316.366L352.945 676.528H502.733C502.733 676.528 532.038 625.28 608 625.28C683.962 625.28 713.267 676.528 713.267 676.528H863.055L899.634 905.878H1055.14ZM858.609 680.94L892.518 905.878H754.291L748.951 806.957H608H467.049L461.709 905.878H323.482L357.391 680.94H608H858.609ZM748.378 905.878L743.705 812.833H608H472.295L467.622 905.878H608H748.378ZM608 629.293C669.92 629.293 698.36 664.03 706.516 676.528H608H509.484C517.64 664.03 546.08 629.293 608 629.293Z" fill="url(#paint21_linear_4804_37249)"/>
<path fill-rule="evenodd" clip-rule="evenodd" d="M1072 917L904.242 144H608H311.758L144 917H608H1072ZM901.615 147.909L959.723 437.461H702.822C698.068 401.3 657.333 373.05 607.785 373.05C558.237 373.05 517.932 401.3 513.178 437.461H256.277L314.385 147.909H431.463L417.579 254.544H541.181C541.181 254.544 552.063 292.081 608 292.081C663.937 292.081 674.819 254.544 674.819 254.544H798.422L784.538 147.909H901.615ZM608 287.844C563.532 287.844 549.932 264.034 546.357 254.544H608H669.643C666.068 264.034 652.468 287.844 608 287.844ZM608 250.706H421.965L435.048 147.909H508.359L505.288 195.043H608H710.711L707.641 147.909H780.952L794.035 250.706H608ZM608 191.205H509.409L512.079 147.909H608H703.921L706.591 191.205H608ZM608.185 510.402C657.297 510.402 697.109 480.578 697.109 443.789C697.109 407 657.297 377.176 608.185 377.176C559.074 377.176 519.262 407 519.262 443.789C519.262 480.578 559.074 510.402 608.185 510.402ZM1055.14 905.878L960.928 443.071H703.265C703.278 443.563 703.285 444.056 703.285 444.55C703.285 484.038 660.528 516.05 607.785 516.05C555.042 516.05 512.715 484.038 512.715 444.55C512.715 444.056 512.721 443.563 512.735 443.071H255.072L160.859 905.878H316.366L352.945 676.528H502.733C502.733 676.528 532.038 625.28 608 625.28C683.962 625.28 713.267 676.528 713.267 676.528H863.055L899.634 905.878H1055.14ZM858.609 680.94L892.518 905.878H754.291L748.951 806.957H608H467.049L461.709 905.878H323.482L357.391 680.94H608H858.609ZM748.378 905.878L743.705 812.833H608H472.295L467.622 905.878H608H748.378ZM608 629.293C669.92 629.293 698.36 664.03 706.516 676.528H608H509.484C517.64 664.03 546.08 629.293 608 629.293Z" fill="white"/>
</g>
</g>
<defs>
<filter id="filter0_ii_4804_37249" x="114" y="144" width="988" height="773" filterUnits="userSpaceOnUse" color-interpolation-filters="sRGB">
<feFlood flood-opacity="0" result="BackgroundImageFix"/>
<feBlend mode="normal" in="SourceGraphic" in2="BackgroundImageFix" result="shape"/>
<feColorMatrix in="SourceAlpha" type="matrix" values="0 0 0 0 0 0 0 0 0 0 0 0 0 0 0 0 0 0 127 0" result="hardAlpha"/>
<feOffset dx="-60"/>
<feGaussianBlur stdDeviation="15"/>
<feComposite in2="hardAlpha" operator="arithmetic" k2="-1" k3="1"/>
<feColorMatrix type="matrix" values="0 0 0 0 0 0 0 0 0 0 0 0 0 0 0 0 0 0 0.1 0"/>
<feBlend mode="normal" in2="shape" result="effect1_innerShadow_4804_37249"/>
<feColorMatrix in="SourceAlpha" type="matrix" values="0 0 0 0 0 0 0 0 0 0 0 0 0 0 0 0 0 0 127 0" result="hardAlpha"/>
<feOffset dx="65"/>
<feGaussianBlur stdDeviation="15"/>
<feComposite in2="hardAlpha" operator="arithmetic" k2="-1" k3="1"/>
<feColorMatrix type="matrix" values="0 0 0 0 0 0 0 0 0 0 0 0 0 0 0 0 0 0 0.1 0"/>
<feBlend mode="normal" in2="effect1_innerShadow_4804_37249" result="effect2_innerShadow_4804_37249"/>
</filter>
<filter id="filter1_d_4804_37249" x="141.334" y="144" width="933.331" height="778.801" filterUnits="userSpaceOnUse" color-interpolation-filters="sRGB">
<feFlood flood-opacity="0" result="BackgroundImageFix"/>
<feColorMatrix in="SourceAlpha" type="matrix" values="0 0 0 0 0 0 0 0 0 0 0 0 0 0 0 0 0 0 127 0" result="hardAlpha"/>
<feOffset dy="3.1359"/>
<feGaussianBlur stdDeviation="1.33276"/>
<feColorMatrix type="matrix" values="0 0 0 0 0 0 0 0 0 0 0 0 0 0 0 0 0 0 0.5 0"/>
<feBlend mode="normal" in2="BackgroundImageFix" result="effect1_dropShadow_4804_37249"/>
<feBlend mode="normal" in="SourceGraphic" in2="effect1_dropShadow_4804_37249" result="shape"/>
</filter>
<linearGradient id="paint0_linear_4804_37249" x1="313.406" y1="68.1635" x2="1116.26" y2="472.741" gradientUnits="userSpaceOnUse">
<stop stop-color="#1C2A37"/>
<stop offset="1" stop-color="#0F1821"/>
</linearGradient>
<linearGradient id="paint1_linear_4804_37249" x1="1073.32" y1="144" x2="1073.32" y2="917" gradientUnits="userSpaceOnUse">
<stop stop-color="#07230F"/>
<stop offset="1" stop-color="#1B8939"/>
</linearGradient>
<linearGradient id="paint2_linear_4804_37249" x1="313.406" y1="68.1635" x2="1116.26" y2="472.741" gradientUnits="userSpaceOnUse">
<stop stop-color="#1C2A37"/>
<stop offset="1" stop-color="#0F1821"/>
</linearGradient>
<linearGradient id="paint3_linear_4804_37249" x1="1073.32" y1="144" x2="1073.32" y2="917" gradientUnits="userSpaceOnUse">
<stop stop-color="#07230F"/>
<stop offset="1" stop-color="#1B8939"/>
</linearGradient>
<linearGradient id="paint4_linear_4804_37249" x1="313.406" y1="68.1635" x2="1116.26" y2="472.741" gradientUnits="userSpaceOnUse">
<stop stop-color="#1C2A37"/>
<stop offset="1" stop-color="#0F1821"/>
</linearGradient>
<linearGradient id="paint5_linear_4804_37249" x1="1073.32" y1="144" x2="1073.32" y2="917" gradientUnits="userSpaceOnUse">
<stop stop-color="#07230F"/>
<stop offset="1" stop-color="#1B8939"/>
</linearGradient>
<linearGradient id="paint6_linear_4804_37249" x1="313.406" y1="68.1635" x2="1116.26" y2="472.741" gradientUnits="userSpaceOnUse">
<stop stop-color="#1C2A37"/>
<stop offset="1" stop-color="#0F1821"/>
</linearGradient>
<linearGradient id="paint7_linear_4804_37249" x1="1073.32" y1="144" x2="1073.32" y2="917" gradientUnits="userSpaceOnUse">
<stop stop-color="#07230F"/>
<stop offset="1" stop-color="#1B8939"/>
</linearGradient>
<linearGradient id="paint8_linear_4804_37249" x1="313.406" y1="68.1635" x2="1116.26" y2="472.741" gradientUnits="userSpaceOnUse">
<stop stop-color="#1C2A37"/>
<stop offset="1" stop-color="#0F1821"/>
</linearGradient>
<linearGradient id="paint9_linear_4804_37249" x1="1073.32" y1="144" x2="1073.32" y2="917" gradientUnits="userSpaceOnUse">
<stop stop-color="#07230F"/>
<stop offset="1" stop-color="#1B8939"/>
</linearGradient>
<linearGradient id="paint10_linear_4804_37249" x1="313.406" y1="68.1635" x2="1116.26" y2="472.741" gradientUnits="userSpaceOnUse">
<stop stop-color="#1C2A37"/>
<stop offset="1" stop-color="#0F1821"/>
</linearGradient>
<linearGradient id="paint11_linear_4804_37249" x1="1073.32" y1="144" x2="1073.32" y2="917" gradientUnits="userSpaceOnUse">
<stop stop-color="#07230F"/>
<stop offset="1" stop-color="#1B8939"/>
</linearGradient>
<linearGradient id="paint12_linear_4804_37249" x1="313.406" y1="68.1635" x2="1116.26" y2="472.741" gradientUnits="userSpaceOnUse">
<stop stop-color="#1C2A37"/>
<stop offset="1" stop-color="#0F1821"/>
</linearGradient>
<linearGradient id="paint13_linear_4804_37249" x1="1073.32" y1="144" x2="1073.32" y2="917" gradientUnits="userSpaceOnUse">
<stop stop-color="#07230F"/>
<stop offset="1" stop-color="#1B8939"/>
</linearGradient>
<linearGradient id="paint14_linear_4804_37249" x1="313.406" y1="68.1635" x2="1116.26" y2="472.741" gradientUnits="userSpaceOnUse">
<stop stop-color="#1C2A37"/>
<stop offset="1" stop-color="#0F1821"/>
</linearGradient>
<linearGradient id="paint15_linear_4804_37249" x1="1073.32" y1="144" x2="1073.32" y2="917" gradientUnits="userSpaceOnUse">
<stop stop-color="#07230F"/>
<stop offset="1" stop-color="#1B8939"/>
</linearGradient>
<linearGradient id="paint16_linear_4804_37249" x1="313.406" y1="68.1635" x2="1116.26" y2="472.741" gradientUnits="userSpaceOnUse">
<stop stop-color="#1C2A37"/>
<stop offset="1" stop-color="#0F1821"/>
</linearGradient>
<linearGradient id="paint17_linear_4804_37249" x1="1073.32" y1="144" x2="1073.32" y2="917" gradientUnits="userSpaceOnUse">
<stop stop-color="#07230F"/>
<stop offset="1" stop-color="#1B8939"/>
</linearGradient>
<linearGradient id="paint18_linear_4804_37249" x1="313.406" y1="68.1635" x2="1116.26" y2="472.741" gradientUnits="userSpaceOnUse">
<stop stop-color="#1C2A37"/>
<stop offset="1" stop-color="#0F1821"/>
</linearGradient>
<linearGradient id="paint19_linear_4804_37249" x1="313.406" y1="68.1635" x2="1116.26" y2="472.741" gradientUnits="userSpaceOnUse">
<stop stop-color="#1C2A37"/>
<stop offset="1" stop-color="#0F1821"/>
</linearGradient>
<linearGradient id="paint20_linear_4804_37249" x1="313.406" y1="68.1635" x2="1116.26" y2="472.741" gradientUnits="userSpaceOnUse">
<stop stop-color="#1C2A37"/>
<stop offset="1" stop-color="#0F1821"/>
</linearGradient>
<linearGradient id="paint21_linear_4804_37249" x1="313.406" y1="68.1635" x2="1116.26" y2="472.741" gradientUnits="userSpaceOnUse">
<stop stop-color="#1C2A37"/>
<stop offset="1" stop-color="#0F1821"/>
</linearGradient>
</defs>
</svg>
